<?xml version="1.0" standalone="no"?><!DOCTYPE svg PUBLIC "-//W3C//DTD SVG 1.1//EN" "http://www.w3.org/Graphics/SVG/1.1/DTD/svg11.dtd"><svg t="1566180870279" class="icon" viewBox="0 0 1024 1024" version="1.1" xmlns="http://www.w3.org/2000/svg" p-id="16055" xmlns:xlink="http://www.w3.org/1999/xlink" width="300" height="300"><defs><style type="text/css"></style></defs><path d="M156.643 819.53L149.525 850H94c0-129.787 105.213-235 235-235 54.754 0 105.134 18.726 145.086 50.122l-38.635 46.083-23.995-15.62C386.441 682.189 358.312 675 329 675c-86.256 0-157.937 62.405-172.357 144.53zM940 868.5h-60C880 761.633 793.367 675 686.5 675S493 761.633 493 868.5h-60C433 728.496 546.496 615 686.5 615 826.504 615 940 728.496 940 868.5zM278 515c84.5 0 153-68.5 153-153s-68.5-153-153-153-153 68.5-153 153 68.5 153 153 153z m0 60c-117.637 0-213-95.363-213-213s95.363-213 213-213 213 95.363 213 213-95.363 213-213 213z m470-60c84.5 0 153-68.5 153-153s-68.5-153-153-153-153 68.5-153 153 68.5 153 153 153z m0 60c-117.637 0-213-95.363-213-213s95.363-213 213-213 213 95.363 213 213-95.363 213-213 213z" p-id="16056"></path></svg>