<?xml version="1.0" standalone="no"?><!DOCTYPE svg PUBLIC "-//W3C//DTD SVG 1.1//EN" "http://www.w3.org/Graphics/SVG/1.1/DTD/svg11.dtd"><svg t="1601002420282" class="icon" viewBox="0 0 1024 1024" version="1.1" xmlns="http://www.w3.org/2000/svg" p-id="2722" xmlns:xlink="http://www.w3.org/1999/xlink" width="128" height="128"><defs><style type="text/css"></style></defs><path d="M41.344 939.392m-32 0a32 32 0 1 0 64 0 32 32 0 1 0-64 0Z" fill="#bfbfbf" p-id="2723"></path><path d="M976.832 939.392m-32 0a32 32 0 1 0 64 0 32 32 0 1 0-64 0Z" fill="#bfbfbf" p-id="2724"></path><path d="M200 169.344h128v533.312h-128zM448 318.528h128v384.128H448zM696 368h128v334.656h-128z" fill="#bfbfbf" p-id="2725"></path><path d="M864 52.032h-704a128 128 0 0 0-128 128v512a128 128 0 0 0 128 128h704a128 128 0 0 0 128-128v-512a128 128 0 0 0-128-128z m64 601.536a102.4 102.4 0 0 1-102.4 102.4H198.4a102.4 102.4 0 0 1-102.4-102.4v-435.2a102.4 102.4 0 0 1 102.4-102.4h627.2a102.4 102.4 0 0 1 102.4 102.4v435.2zM41.344 907.392h935.552v64H41.344z" fill="#bfbfbf" p-id="2726"></path></svg>