<?xml version="1.0" standalone="no"?><!DOCTYPE svg PUBLIC "-//W3C//DTD SVG 1.1//EN" "http://www.w3.org/Graphics/SVG/1.1/DTD/svg11.dtd"><svg t="1562814338851" class="icon" viewBox="0 0 1095 1024" version="1.1" xmlns="http://www.w3.org/2000/svg" p-id="18961" xmlns:xlink="http://www.w3.org/1999/xlink" width="320.80078125" height="300"><defs><style type="text/css"></style></defs><path d="M666.866 182.566c4.992 6.602 12.705 11.344 21.177 11.153 50.387 0.069 100.783 0.099 151.179-0.012 1.742-17.767-1.81-36.022-13.114-50.227-28.64-37.771-65.951-67.702-101.563-98.581-20.516-16.395-40.572-36.673-67.431-41.474L646.94 3.425l-0.001 0.004c0.031 42.014-0.069 84.028 0.05 126.05C647.991 148.546 654.451 167.851 666.866 182.566z" p-id="18962"></path><path d="M698.006 259.269c-16.015 0.19-32.47-1.041-47.275-7.662-44.114-20.058-66.452-69.713-68.172-116.078-0.351-44.035-0.041-88.069-0.161-132.103L184.502 3.426l-0.004 0.006c-26.918 2.46-50.457 17.904-69.432 36.26-27.127 26.829-46.724 63.881-45.304 102.783 0.031 229.414-0.019 458.818 0.02 688.22-0.23 20.196 6.163 40.101 17.106 56.978 17.006 27.409 41.903 49.774 70.603 64.4 14.354 7.254 30.119 12.414 46.355 12.214 120.368 0.019 240.728 0.019 361.086 0-39.413-55.779-56.047-125.68-50.096-193.403-84.646-0.031-169.294 0.079-253.941-0.051-25.489 0.28-49.697-16.745-59.049-40.252-7.522-19.927-4.931-43.796 8.073-60.891 11.714-16.055 30.841-26.778 50.917-26.628 99.692-0.17 199.384 0.071 299.075-0.119 33.52-52.036 84.207-92.699 142.225-114.217 43.546-16.437 91-20.497 137.085-15.806 0.07-84.537 0.08-169.075 0-253.602C792.147 259.189 745.082 259.289 698.006 259.269zM516.503 441.578l0.035 0c16.792 0 30.385 12.872 30.385 28.785 0 15.944-13.592 28.816-30.385 28.816L407.394 499.179l0 62.558c0 21.261-18.185 38.517-40.597 38.517-22.412 0-40.597-17.257-40.597-38.517l0-62.558L217.055 499.179c-16.792 0-30.383-12.872-30.383-28.816 0-15.912 13.591-28.785 30.383-28.785l109.144 0 0-41.62L217.055 399.958c-16.792 0-30.383-12.904-30.383-28.816s13.591-28.816 30.383-28.816l109.144 0 0-32.368-109.817-105.94c-13.702-13.257-13.51-34.482 0.448-47.447 13.975-12.967 36.339-12.807 50.057 0.447l99.939 96.371 99.955-96.371c13.702-13.254 36.082-13.414 50.041-0.447 13.942 12.965 14.12 34.258 0.448 47.447l-109.8 105.94 0 32.368 109.128 0c16.808 0 30.399 12.904 30.399 28.816s-13.591 28.816-30.399 28.816L407.471 399.958l0 41.62L516.503 441.578z" p-id="18963"></path><path d="M1003.91936 958.80704 926.0544 880.9472c17.64352-26.64448 28.04224-58.5216 28.04224-92.87168 0-93.11744-75.48416-168.6016-168.59648-168.6016-93.11744 0-168.59648 75.48416-168.59648 168.6016 0 93.11232 75.48416 168.59648 168.59648 168.59648 34.35008 0 66.2272-10.39872 92.86656-28.04224l77.86496 77.86496c9.69216 9.68704 25.5488 9.68704 35.23584 0l12.45696-12.45184C1013.6064 984.35072 1013.6064 968.4992 1003.91936 958.80704zM876.544 831.43168c-9.97376 20.89472-26.78784 37.7088-47.68768 47.68768-13.184 6.2976-27.776 10.11712-43.36128 10.11712-55.86944 0-101.16096-45.29664-101.16096-101.16096 0-55.86944 45.29152-101.16096 101.16096-101.16096s101.16096 45.29152 101.16096 101.16096C886.656 803.6608 882.8416 818.24256 876.544 831.43168z" p-id="18964"></path></svg>