<?xml version="1.0" standalone="no"?><!DOCTYPE svg PUBLIC "-//W3C//DTD SVG 1.1//EN" "http://www.w3.org/Graphics/SVG/1.1/DTD/svg11.dtd"><svg t="1601002914436" class="icon" viewBox="0 0 1053 1024" version="1.1" xmlns="http://www.w3.org/2000/svg" p-id="5181" xmlns:xlink="http://www.w3.org/1999/xlink" width="131.625" height="128"><defs><style type="text/css"></style></defs><path d="M991.604755 662.080669L425.919331 96.395245A112.64 112.64 0 0 0 266.622315 96.395245l-126.713535 126.713535a291.84 291.84 0 0 0 0 412.724086l230.075576 230.075576 6.878734 6.426186a125.44 125.44 0 0 0 170.520215-6.426186L664.72909 748.562657l120.196839 120.196839a112.64 112.64 0 0 0 159.297015 0L991.604755 821.377685a112.64 112.64 0 0 0 0-159.297016z m-70.597541 70.597541c4.978032 4.978032 4.978032 13.123902 0 18.101934l-47.427066 47.427066a12.8 12.8 0 0 1-18.101933 0l-154.590513-154.590513a51.2 51.2 0 0 0-72.407734 0l-151.694204 151.694204a25.6 25.6 0 0 1-36.203867 0L210.506321 565.235325a192 192 0 0 1 0-271.529004l126.713535-126.713535c4.978032-4.978032 13.123902-4.978032 18.101934 0l565.685424 565.685424z" p-id="5182"></path></svg>