<?xml version="1.0" standalone="no"?><!DOCTYPE svg PUBLIC "-//W3C//DTD SVG 1.1//EN" "http://www.w3.org/Graphics/SVG/1.1/DTD/svg11.dtd"><svg t="1601021565812" class="icon" viewBox="0 0 1024 1024" version="1.1" xmlns="http://www.w3.org/2000/svg" p-id="3137" xmlns:xlink="http://www.w3.org/1999/xlink" width="128" height="128"><defs><style type="text/css"></style></defs><path d="M535.784727 287.557818s79.127273-146.292364 128.046546-241.012363L977.454545 360.168727a16677.841455 16677.841455 0 0 0-241.570909 127.441455L535.738182 287.511273z m-313.856 236.637091S172.590545 717.824 93.090909 841.262545l30.487273 30.440728 146.152727-146.152728c12.846545-12.846545 20.945455-29.556364 23.179636-47.476363a47.010909 47.010909 0 1 1 52.456728 52.456727 81.082182 81.082182 0 0 0-47.476364 23.226182l-146.152727 146.199273 30.440727 30.952727c122.135273-78.615273 317.067636-129.396364 317.067636-129.396364l157.044364-288.768-145.594182-145.594182-288.768 157.044364z" p-id="3138"></path></svg>