<?xml version="1.0" standalone="no"?><!DOCTYPE svg PUBLIC "-//W3C//DTD SVG 1.1//EN" "http://www.w3.org/Graphics/SVG/1.1/DTD/svg11.dtd"><svg t="1601021511161" class="icon" viewBox="0 0 1043 1024" version="1.1" xmlns="http://www.w3.org/2000/svg" p-id="2501" xmlns:xlink="http://www.w3.org/1999/xlink" width="130.375" height="128"><defs><style type="text/css"></style></defs><path d="M412.845288 676.679811H257.393492c-12.634329 0-23.039071 10.404742-23.039071 23.039071v25.887989c0 12.634329 10.404742 23.039071 23.039071 23.039071h155.451796v143.93226H484.315955V748.645942h155.451796c12.634329 0 23.039071-10.404742 23.039071-23.039071v-25.887989c0-12.634329-10.404742-23.039071-23.039071-23.039071H484.315955v-71.96613h-71.346801v71.96613z m86.45845-143.93226l172.793032-174.527157c8.670618-9.166082 8.670618-23.658401 0-32.205153l-17.8367-18.45603c-9.166082-9.166082-23.658401-9.166082-32.824483 0L448.518689 482.086367l-172.173703-174.527156c-9.166082-9.166082-23.658401-9.166082-32.824483 0l-17.8367 18.45603c-8.670618 9.166082-8.670618 23.658401 0 32.205153l172.793033 174.527157H258.012822c-12.634329 0-23.039071 10.404742-23.039071 23.039071v25.887988c0 12.634329 10.404742 23.039071 23.039071 23.039071h381.754929c12.634329 0 23.039071-10.404742 23.039071-23.039071v-25.887988c0-12.634329-10.404742-23.039071-23.039071-23.039071H499.303738zM91.04149 158.42458h711.733882c39.760977 0 71.96613 32.205153 71.96613 71.96613v691.048264c0 39.760977-32.205153 71.96613-71.96613 71.966131H91.04149c-39.760977 0-71.96613-32.205153-71.96613-71.966131V230.39071c-0.123866-39.760977 32.205153-71.96613 71.96613-71.96613z" p-id="2502" fill="#bfbfbf"></path><path d="M92.156284 14.492319h819.373412c59.331801 0 107.639531 48.431596 107.639531 107.639531v844.146607c0 19.570824-16.102577 35.6734-35.6734 35.6734s-35.6734-16.102577-35.6734-35.6734V194.09798c0-59.331801-48.431596-107.639531-107.639531-107.639531H127.829684c-19.570824 0-35.6734-16.102577-35.6734-35.6734V14.492319z" p-id="2503" fill="#bfbfbf"></path></svg>