<?xml version="1.0" standalone="no"?><!DOCTYPE svg PUBLIC "-//W3C//DTD SVG 1.1//EN" "http://www.w3.org/Graphics/SVG/1.1/DTD/svg11.dtd"><svg t="1586869628290" class="icon" viewBox="0 0 1024 1024" version="1.1" xmlns="http://www.w3.org/2000/svg" p-id="2867" width="400" height="400" xmlns:xlink="http://www.w3.org/1999/xlink"><defs><style type="text/css"></style></defs><path d="M766.2848 456.02304c-3.8912 0-7.296 0.77312-10.13248 2.30912-2.83136 1.61792-5.18656 3.56352-7.12704 5.95456-1.8688 2.39104-3.80928 5.30944-5.8368 8.67328-1.94048 3.4048-3.80928 6.68672-5.67296 9.76896l-48.22016 79.70304-53.97504-84.56704c-4.69504-7.61856-8.75008-13.2096-12.3136-16.65536-3.48672-3.44576-8.02304-5.18656-13.77792-5.18656-5.50912 0-10.05056 1.78688-13.53216 5.26848-3.56864 3.52256-5.26848 8.1408-5.26848 13.9776 0 3.2 0.56832 6.15936 1.78688 8.832 1.29536 2.63168 3.88608 7.12704 7.94112 13.36832l49.92 78.2848-21.31456 0c-15.80032 0-23.66464 5.15072-23.66464 15.39584 0 10.45504 7.86432 15.68256 23.66464 15.68256l37.6832 0 0 24.02816-37.6832 0c-15.80032 0-23.66464 5.26848-23.66464 15.7184 0 10.20928 7.86432 15.35488 23.66464 15.35488l37.6832 0 0 13.33248c0 22.65088 7.61856 33.95584 22.85568 33.95584 14.99136 0 22.53312-11.30496 22.53312-33.95584l0-13.33248 37.76512 0c15.6416 0 23.5008-5.1456 23.5008-15.35488 0-10.45504-7.8592-15.72352-23.5008-15.72352l-37.76512 0 0-24.02816 37.76512 0c15.6416 0 23.5008-5.22752 23.5008-15.68256 0-10.25024-7.8592-15.39584-23.5008-15.39584l-21.23264 0 48.05632-79.33952c3.07712-4.864 5.18656-8.91392 6.64576-12.15488 1.37728-3.24608 2.10944-6.8096 2.10944-10.69568 0-4.90496-1.78688-9.0368-5.26848-12.48256C776.33536 457.72288 771.79392 456.02304 766.2848 456.02304z" p-id="2868"></path><path d="M722.39616 281.87136 722.39616 193.49504c0-0.1792-0.04608-0.34304-0.0512-0.52224 0.00512-0.27648 0.0512-0.54272 0.0512-0.8192 0-76.25728-156.04224-117.42208-302.84288-117.42208-146.72896 0-302.7712 41.1648-302.7712 117.42208 0 0.27648 0.04608 0.54272 0.0512 0.8192-0.00512 0.1792-0.0512 0.34304-0.0512 0.52224L116.78208 261.7344C48.27136 288.5376 33.39776 321.29536 33.39776 344.56576c0 0.2816 0.0512 0.54784 0.0512 0.82432-0.00512 0.17408-0.0512 0.33792-0.0512 0.51712l0 110.81728c0 0.00512 0 0.00512 0 0.01024 0 35.38944 33.6384 63.20128 84.3264 82.85696-0.5632 1.7408-0.9472 3.56864-0.9472 5.49888l0 97.17248c0 5.21728 2.24768 9.87648 5.78048 13.16864 29.83936 59.3152 172.33408 94.02368 310.74816 94.02368 0.62976 0 1.2288-0.12288 1.8432-0.18432 54.25152 81.96096 147.23584 136.15616 252.67712 136.15616 166.97856 0 302.77632-135.82848 302.77632-302.80704C990.60224 427.36128 873.1392 299.0848 722.39616 281.87136zM385.5616 600.56064c-84.92544-3.57376-151.09632-19.84-190.86336-39.5264 44.28288 8.63232 93.35808 13.0816 141.47072 13.0816 16.50688 0 32.92672-0.49664 49.07008-1.44384-0.10752 3.30752-0.25088 6.60992-0.25088 9.94304C384.98816 588.64128 385.21344 594.61632 385.5616 600.56064zM459.06944 384.54784c-12.93824 0.62976-26.07616 1.03936-39.52128 1.03936-165.21216 0-266.65472-47.3344-266.65472-81.26464L152.89344 249.97376c54.61504 38.9888 162.92352 59.56608 266.65472 59.56608 103.7824 0 212.10624-20.57728 266.7264-59.56608l0 29.90592C595.63008 280.34048 514.32448 320.84992 459.06944 384.54784zM419.55328 110.85312c165.28384 0 266.7264 47.37024 266.7264 81.30048 0 33.93536-101.44256 81.26464-266.7264 81.26464-165.21216 0-266.65472-47.3344-266.65472-81.26464C152.89856 158.22336 254.34112 110.85312 419.55328 110.85312zM116.77696 300.9536l0 3.36896c0 0 0 0 0 0 0 75.69408 153.7536 116.75648 299.53536 117.35552-25.856 2.70848-52.69504 4.15232-80.14336 4.15232-165.21216 0-266.65472-47.3344-266.65472-81.26464C69.51424 330.53184 87.12704 314.5984 116.77696 300.9536zM69.51424 456.73984c0 0 0-0.00512 0-0.00512L69.51424 402.38592c54.61504 38.9888 162.92352 59.56608 266.65472 59.56608 25.76896 0 51.05664-1.15712 75.54048-3.44064-11.01312 24.3968-18.95936 50.46272-23.17312 77.75744-17.17248 1.12128-34.7136 1.72544-52.36736 1.72544C170.96704 537.99936 69.5296 490.66496 69.51424 456.73984zM152.89856 632.20736l0-54.12864c46.01344 33.09568 132.82304 55.12704 237.056 58.79296 4.86912 26.78784 13.19936 52.38272 24.64256 76.2368C256.50176 709.67296 152.89856 663.30624 152.89856 632.20736zM687.82592 849.30048c-147.08224 0-266.72128-119.64416-266.72128-266.69056 0-62.31552 21.54496-119.6544 57.4976-165.09952 3.456-2.11968 6.15424-5.30944 7.56736-9.1392 48.94208-56.54016 121.1648-92.416 201.65632-92.416 147.01568 0 266.65472 119.60832 266.65472 266.65472C954.48576 729.66144 834.8416 849.30048 687.82592 849.30048z" p-id="2869"></path></svg>