<?xml version="1.0" standalone="no"?><!DOCTYPE svg PUBLIC "-//W3C//DTD SVG 1.1//EN" "http://www.w3.org/Graphics/SVG/1.1/DTD/svg11.dtd"><svg t="1576423681544" class="icon" viewBox="0 0 1024 1024" version="1.1" xmlns="http://www.w3.org/2000/svg" p-id="1580" xmlns:xlink="http://www.w3.org/1999/xlink" width="200" height="200"><defs><style type="text/css"></style></defs><path d="M265.19878 487.844336h354.742858a22.263172 22.263172 0 1 0 0-44.281695H265.19878a22.263172 22.263172 0 1 0 0 44.281695z m199.389951 110.826561H265.19878a22.263172 22.263172 0 1 0 0 44.281695h199.389951a22.263172 22.263172 0 0 0 0-44.281695z" p-id="1581"></path><path d="M932.115353 616.285715a237.80004 237.80004 0 0 0-90.520592-56.758857V199.646345a65.321616 65.321616 0 0 0-66.544867-66.544867h-133.334384a65.321616 65.321616 0 0 0-66.544868-66.544868h-22.263172A65.321616 65.321616 0 0 0 486.362603 0.011743h-110.337262a65.321616 65.321616 0 0 0-66.544867 66.544867h-22.263172a65.321616 65.321616 0 0 0-66.300217 66.544868H87.827351A65.321616 65.321616 0 0 0 21.282483 199.646345v731.504238a65.321616 65.321616 0 0 0 66.544868 66.544867h566.609971a238.778641 238.778641 0 0 0 277.678031-381.409735zM265.19878 133.101478a21.039921 21.039921 0 0 1 22.263172-22.263173h66.544867V66.55661a21.039921 21.039921 0 0 1 22.263173-22.263172h110.826562a21.039921 21.039921 0 0 1 22.263172 22.263172v44.281695h66.544867a21.039921 21.039921 0 0 1 22.263173 22.263173v66.544867a21.039921 21.039921 0 0 1-22.263173 22.263172H287.461952a21.039921 21.039921 0 0 1-22.263172-22.263172z m-177.371429 819.578327a21.039921 21.039921 0 0 1-22.263173-22.263173V199.646345a21.039921 21.039921 0 0 1 22.263173-22.263173h133.089734v22.263173a65.321616 65.321616 0 0 0 66.544867 66.544867h287.953341a65.321616 65.321616 0 0 0 66.300217-66.544867v-22.263173h133.089734a21.039921 21.039921 0 0 1 22.263172 22.263173v349.115902a241.714444 241.714444 0 0 0-33.761734-2.446502 238.533991 238.533991 0 0 0-169.297971 406.36406z m676.213282 26.177576a192.784395 192.784395 0 0 1-93.211744-24.465025l-4.648355-1.712551a194.007646 194.007646 0 1 1 97.860099 25.932926z" p-id="1582"></path><path d="M870.952791 649.802799a14.434365 14.434365 0 0 1 10.764611 4.648355 14.923665 14.923665 0 0 1 4.403704 10.764611v231.194483a22.507823 22.507823 0 0 1-8.318108 19.57202 32.783133 32.783133 0 0 1-21.773872 4.893005l-63.119764-3.914404v-28.379429l48.93005 3.914404a12.966463 12.966463 0 0 0 7.828807-1.467902 7.584158 7.584158 0 0 0 2.691153-7.094857v-50.887251h-144.343646a189.848592 189.848592 0 0 1-36.942187 89.786641l-29.358029-19.08272a151.438503 151.438503 0 0 0 28.379428-53.823054 236.332139 236.332139 0 0 0 8.318109-65.076966v-117.432118a17.370168 17.370168 0 0 1 4.893005-12.721813 16.880867 16.880867 0 0 1 12.721812-4.893005z m-17.370168 156.086858v-51.376552h-141.407842v51.621202z m0-126.239528a3.425103 3.425103 0 0 0 0-2.446502 3.425103 3.425103 0 0 0-2.446502 0h-134.312986c-3.180453 0-4.648355 1.467901-4.648354 4.403704v46.972848h141.407842z" p-id="1583"></path></svg>