<?xml version="1.0" standalone="no"?><!DOCTYPE svg PUBLIC "-//W3C//DTD SVG 1.1//EN" "http://www.w3.org/Graphics/SVG/1.1/DTD/svg11.dtd"><svg t="1586869435639" class="icon" viewBox="0 0 1024 1024" version="1.1" xmlns="http://www.w3.org/2000/svg" p-id="2056" width="400" height="400" xmlns:xlink="http://www.w3.org/1999/xlink"><defs><style type="text/css"></style></defs><path d="M129.1 582.3c8.1-7.2 17.6-11.1 27.3-11.1 34.2 0 74.4 43 116.9 88.5 35.9 38.3 76.6 81.8 114.9 96.7 80.1 31.1 155.1 37.7 203.8 37.8h25.4c8.5 0 16.2-4.9 19.9-12.5 3.7-7.6 2.7-16.7-2.6-23.4l-15.7-20c-30.4-38.7-34.4-48.3-34.6-48.7-2.7-6.8-1-15.8 4.6-24.1 6.3-9.3 15.1-14.5 24.7-14.5 1.5 0 2.9 0.1 4.5 0.4 3.6 0.5 20.6 4.3 86.3 28.8l46.8 17.9 16.7 6.5c62.4 24.5 120 48.2 138.5 55.8v155.7H434c-51.4 0-115.5-32.5-180.6-91.6-58.5-53.1-107.1-118.6-127-171.2-8.8-23.4-15.5-54.8 2.7-71z m795.8 137.8c-16.6-6.9-75.9-31.3-140.9-56.8l-7.5-2.9c57.1-65.5 88.6-149.5 88.7-236.4 0-198.8-160.8-360.5-358.4-360.5-197.5 0-358.3 161.7-358.3 360.5 0 16 1 31.8 3 47 1.8 13.4 14.1 22.9 27.6 21.2 13.4-1.9 22.7-14.2 20.9-27.6-1.7-13.5-2.6-27-2.6-40.6 0-171.6 138.8-311.2 309.4-311.2 170.6 0 309.4 139.6 309.4 311.3 0 82-31.4 159.1-88.6 217.6l-7.7-2.9c-50.6-18.9-81.7-29.1-95-31.1-28.2-4.4-55.6 8.2-72.4 33.1-13.8 20.5-17.1 44.9-9 65.4 3.4 8.4 12.6 22.6 28.3 43.3-57.4-2.3-114.1-13.9-167.7-34.4-28.9-11.2-66-50.8-98.6-85.7-49.3-52.6-95.8-102.4-149-102.4-20.6 0-40.2 7.7-56.5 22.3-20.6 18.1-39.7 53.7-14.7 119.8 22.1 58.7 75.3 130.9 138.6 188.4 73.2 66.4 147.8 103 210.1 103h475c23-0.1 41.6-18.8 41.6-41.8V758.8c0.1-16.9-10-32.3-25.7-38.7M620.1 238.9c-4.5-4.7-10.7-7.4-17.2-7.5-6.5-0.1-12.8 2.4-17.4 6.9L504.6 317l-78-78.3c-4.6-4.5-10.8-7.1-17.3-7-6.5 0-12.7 2.5-17.4 7-9.5 9.7-9.5 25.2 0.1 34.8l84.5 84.8h-66.7c-6.5 0-12.7 2.6-17.3 7.2-4.6 4.6-7.1 10.9-7.1 17.4 0 6.5 2.5 12.7 7.1 17.4 4.6 4.6 10.8 7.2 17.3 7.2h70.7v46.8h-70.7c-13.6 0-24.6 11-24.6 24.6 0 13.6 11 24.6 24.6 24.6h70.7v73c0 6.5 2.5 12.7 7.1 17.4 4.6 4.6 10.8 7.2 17.3 7.2 13.5-0.1 24.5-11.1 24.4-24.6v-73h71.2c13.6 0 24.6-11 24.6-24.6 0-13.6-11-24.6-24.6-24.6h-71.2v-46.7h71.2c13.6 0 24.6-11 24.6-24.6s-11-24.6-24.6-24.6h-68.2l87.1-84.6c9.8-9.5 10.1-25 0.7-34.9" p-id="2057"></path></svg>