<?xml version="1.0" standalone="no"?><!DOCTYPE svg PUBLIC "-//W3C//DTD SVG 1.1//EN" "http://www.w3.org/Graphics/SVG/1.1/DTD/svg11.dtd"><svg t="1601002544486" class="icon" viewBox="0 0 1024 1024" version="1.1" xmlns="http://www.w3.org/2000/svg" p-id="4623" xmlns:xlink="http://www.w3.org/1999/xlink" width="128" height="128"><defs><style type="text/css"></style></defs><path d="M809.622 473.413c16.778 0 33.093 1.899 48.987 4.939V318.413L473.087 452.976l-0.555 473.242 124.943-43.763c-29.807-42.284-47.655-93.574-47.655-149.24-0.001-143.484 116.317-259.802 259.802-259.802zM30.008 318.413v472.581l386.069 135.225-0.547-473.239zM444.306 98.228L30.614 235.664l413.692 137.44 413.697-137.44z" p-id="4624"></path><path d="M799.17 519.534c-107.594 0-194.822 87.224-194.822 194.822s87.229 194.822 194.822 194.822c107.598 0 194.822-87.225 194.822-194.822S906.768 519.534 799.17 519.534z m-60.228 272.621c0 5.553-4.503 10.052-10.052 10.052-5.557 0-10.056-4.499-10.056-10.052v-95.378c0-5.553 4.499-10.056 10.056-10.056 5.549 0 10.052 4.503 10.052 10.056v95.378z m46.858 0c0 5.553-4.503 10.052-10.056 10.052s-10.056-4.499-10.056-10.052V636.561c0-5.549 4.503-10.056 10.056-10.056s10.056 4.507 10.056 10.056v155.594z m46.859 0c0 5.553-4.503 10.052-10.06 10.052-5.549 0-10.052-4.499-10.052-10.052v-95.378c0-5.553 4.503-10.056 10.052-10.056 5.557 0 10.056 4.503 10.06 10.056v95.378z m46.855 0c0 5.553-4.503 10.052-10.052 10.052-5.557 0-10.056-4.499-10.056-10.052V636.561c0-5.549 4.499-10.056 10.056-10.056 5.549 0 10.052 4.507 10.052 10.056v155.594z" p-id="4625" ></path></svg>