<?xml version="1.0" standalone="no"?><!DOCTYPE svg PUBLIC "-//W3C//DTD SVG 1.1//EN" "http://www.w3.org/Graphics/SVG/1.1/DTD/svg11.dtd"><svg t="1566180335570" class="icon" viewBox="0 0 1376 1024" version="1.1" xmlns="http://www.w3.org/2000/svg" p-id="12487" xmlns:xlink="http://www.w3.org/1999/xlink" width="403.125" height="300"><defs><style type="text/css"></style></defs><path d="M542.190308 930.286253q-3.340007 0-6.766287-0.197196c-22.332443-1.232475-45.700165-8.220607-72.716012-16.293317-100.113927-29.850539-139.08478-26.707729-170.389639-24.19348-46.341052 3.697424-83.438543 14.469254-116.185398 23.934661-51.036781 14.789697-95.110079 27.521162-133.575618-6.162374C17.094425 885.091403 2.797718 849.090814 0.061624 800.358761V169.023552c0-82.957878 62.227652-150.583769 139.146403-151.80392a993.608848 993.608848 0 0 1 368.362064 0 137.938578 137.938578 0 0 1 98.25289 45.207176c26.337986 28.667364 40.844214 66.553638 40.844215 106.584419v630.176683c-2.859342 48.15279-17.143724 84.325925-42.471082 107.533425-17.36557 15.824976-37.676754 23.564918-62.005806 23.564918z m-221.105977-85.04076c62.856214 0 112.672845 14.863646 153.899127 27.114445 52.30623 15.590806 78.397721 22.184546 99.96603 2.46495 16.675384-15.282687 26.276362-41.411153 28.507142-77.645912V169.023552c0-29.221977-10.463711-56.69384-29.468473-77.399417a95.824915 95.824915 0 0 0-68.722794-31.28021h-1.996609l-1.959635-0.369742a950.509205 950.509205 0 0 0-356.024991 0l-1.996609 0.382067h-2.033584c-25.734074 0-50.112425 11.092273-68.648845 31.292535C53.600328 112.329712 43.136618 139.813899 43.136618 169.048201v629.535796c2.119857 36.39498 11.47434 62.09208 27.792306 76.413437 9.391458 8.220607 19.534725 11.363418 33.905381 10.562309 16.022172-0.912031 36.086862-6.704663 59.269713-13.409326 32.981025-9.55168 74.03476-21.432737 124.714123-25.499903 11.166222-0.936681 21.876427-1.343398 32.278515-1.343397z" p-id="12488"></path><path d="M1145.671587 930.286253q-3.340007 0-6.766287-0.197196c-22.332443-1.232475-45.700165-8.220607-72.716012-16.293317-100.113927-29.850539-139.08478-26.707729-170.389639-24.19348-46.341052 3.697424-83.438543 14.469254-116.185398 23.934661-51.036781 14.789697-95.110079 27.521162-133.575618-6.162374-25.462929-22.283144-39.759637-58.283733-42.49573-107.015786l43.074994-2.464949c2.058233 36.715424 11.425041 62.609719 27.82928 76.96805 9.391458 8.220607 19.522401 11.363418 33.905382 10.562309 16.022172-0.912031 36.086862-6.704663 59.269712-13.409326 32.981025-9.55168 74.03476-21.432737 124.714124-25.499903 78.323773-6.297946 138.123449 11.535964 186.165316 25.88197 52.293905 15.590806 78.397721 22.184546 99.96603 2.46495 16.675384-15.282687 26.276362-41.411153 28.507142-77.645912v-628.192398c0-29.221977-10.463711-56.69384-29.468472-77.399417a95.824915 95.824915 0 0 0-68.722794-31.28021h-1.996609l-1.959635-0.369742a950.509205 950.509205 0 0 0-356.024992 0l-1.996609 0.382067h-2.033583c-25.734074 0-50.112425 11.092273-68.648846 31.292535-19.004761 20.680927-29.468472 48.165115-29.468472 77.399416h-43.136618c0-82.957878 62.227652-150.583769 139.146404-151.803919a993.608848 993.608848 0 0 1 368.362064 0 137.938578 137.938578 0 0 1 98.25289 45.207175c26.337986 28.667364 40.844214 66.553638 40.844214 106.58442V799.18791c-2.859342 48.15279-17.143724 84.325925-42.471081 107.533425-17.353245 15.824976-37.664429 23.564918-61.981157 23.564918zM116.012852 189.125216h371.541849v43.136617H116.012852zM116.012852 329.997084h371.541849v43.136617H116.012852zM116.012852 472.569767h304.322674v43.136617H116.012852z" p-id="12489"></path><path d="M823.182234 381.083164h243.056353v43.136617H823.182234z" p-id="12490"></path><path d="M923.148264 281.129458h43.136618v243.056353h-43.136618z" p-id="12491"></path></svg>