<?xml version="1.0" standalone="no"?><!DOCTYPE svg PUBLIC "-//W3C//DTD SVG 1.1//EN" "http://www.w3.org/Graphics/SVG/1.1/DTD/svg11.dtd"><svg t="1566180168111" class="icon" viewBox="0 0 1024 1024" version="1.1" xmlns="http://www.w3.org/2000/svg" p-id="10042" xmlns:xlink="http://www.w3.org/1999/xlink" width="300" height="300"><defs><style type="text/css"></style></defs><path d="M831 64.2H193c-41.9 0-76 34.1-76 76v744.1c0 41.9 34.1 76 76 76h638c41.9 0 76-34.1 76-76V140.2c-0.1-41.9-34.2-76-76-76zM193 884.3V140.2h638l0.1 744.1H193z" p-id="10043"></path><path d="M701.7 241H322.3c-21 0-38 17-38 38s17 38 38 38h379.4c21 0 38-17 38-38s-17-38-38-38zM701.7 706.8H322.3c-21 0-38 17-38 38s17 38 38 38h379.4c21 0 38-17 38-38s-17-38-38-38zM293.4 644.3c6.7 4.7 14.3 6.9 21.8 6.9 11.9 0 23.7-5.6 31.1-16.1l71.3-101.7 81.5 72.4c16 14.2 37.4 21 58.6 18.7 21.3-2.3 40.6-13.6 53.2-30.9l115.9-160c12.3-17 8.5-40.7-8.5-53-17-12.3-40.7-8.5-53 8.5L549.6 549l-81.5-72.4C452 462.3 430.4 455.5 409 458s-40.9 14-53.3 31.7l-71.5 101.7c-12.1 17.1-7.9 40.8 9.2 52.9z" p-id="10044"></path></svg>