<?xml version="1.0" standalone="no"?><!DOCTYPE svg PUBLIC "-//W3C//DTD SVG 1.1//EN" "http://www.w3.org/Graphics/SVG/1.1/DTD/svg11.dtd"><svg t="1562832457065" class="icon" viewBox="0 0 1024 1024" version="1.1" xmlns="http://www.w3.org/2000/svg" p-id="3414" xmlns:xlink="http://www.w3.org/1999/xlink" width="300" height="300"><defs><style type="text/css"></style></defs><path d="M773.12 894.293333l-498.346667 0 0-785.066667 498.346667 0L773.12 894.293333zM820.906667 68.266667c0-37.546667-30.72-68.266667-68.266667-68.266667l-457.386667 0c-37.546667 0-68.266667 30.72-68.266667 68.266667l0 884.053333c0 37.546667 30.72 68.266667 68.266667 68.266667l457.386667 0c37.546667 0 68.266667-30.72 68.266667-68.266667L820.906667 68.266667zM448.853333 51.2l146.773333 0c3.413333 0 6.826667 3.413333 6.826667 6.826667 0 3.413333-3.413333 6.826667-6.826667 6.826667l-146.773333 0c-3.413333 0-6.826667-3.413333-6.826667-6.826667C442.026667 54.613333 445.44 51.2 448.853333 51.2zM523.946667 989.866667c-20.48 0-34.133333-17.066667-34.133333-34.133333 0-20.48 17.066667-34.133333 34.133333-34.133333 20.48 0 34.133333 17.066667 34.133333 34.133333C558.08 972.8 541.013333 989.866667 523.946667 989.866667z" p-id="3415"></path><path d="M677.546667 303.786667l-30.72-30.72-105.813333 105.813333c-10.24 10.24-27.306667 10.24-37.546667 0l-105.813333-105.813333-30.72 30.72 105.813333 105.813333L380.586667 409.6l0 40.96 119.466667 0L500.053333 512 380.586667 512l0 40.96 119.466667 0L500.053333 750.933333l40.96 0 0-197.973333 119.466667 0L660.48 512l-119.466667 0 0-61.44 119.466667 0L660.48 409.6l-92.16 0L677.546667 303.786667z" p-id="3416"></path></svg>