<?xml version="1.0" standalone="no"?><!DOCTYPE svg PUBLIC "-//W3C//DTD SVG 1.1//EN" "http://www.w3.org/Graphics/SVG/1.1/DTD/svg11.dtd"><svg t="1566180412425" class="icon" viewBox="0 0 1024 1024" version="1.1" xmlns="http://www.w3.org/2000/svg" p-id="13284" xmlns:xlink="http://www.w3.org/1999/xlink" width="300" height="300"><defs><style type="text/css"></style></defs><path d="M928 550.4c-19.2 0-32 12.8-32 32V864c0 19.2-12.8 32-32 32H160c-19.2 0-32-12.8-32-32V160c0-19.2 12.8-32 32-32h246.4c19.2 0 32-12.8 32-32s-12.8-32-32-32H160C105.6 64 64 105.6 64 160v704c0 54.4 41.6 96 96 96h704c54.4 0 96-41.6 96-96v-281.6c0-16-12.8-32-32-32z" p-id="13285"></path><path d="M928 64h-288c-19.2 0-32 12.8-32 32s12.8 32 32 32h195.2C672 198.4 352 387.2 352 707.2c0 19.2 12.8 32 32 32s32-12.8 32-32c0-313.6 364.8-492.8 480-534.4V352c0 19.2 12.8 32 32 32s32-12.8 32-32V96c0-19.2-12.8-32-32-32z" p-id="13286"></path></svg>