<?xml version="1.0" standalone="no"?><!DOCTYPE svg PUBLIC "-//W3C//DTD SVG 1.1//EN" "http://www.w3.org/Graphics/SVG/1.1/DTD/svg11.dtd"><svg t="1576423431022" class="icon" viewBox="0 0 1024 1024" version="1.1" xmlns="http://www.w3.org/2000/svg" p-id="2409" xmlns:xlink="http://www.w3.org/1999/xlink" width="200" height="200"><defs><style type="text/css"></style></defs><path d="M328.533333 896v-74.666667c-83.2-8.533333-149.333333-40.533333-198.4-102.4v-89.6c55.466667 74.666667 121.6 115.2 198.4 121.6v-209.066666c-134.4-25.6-198.4-89.6-192-187.733334 4.266667-98.133333 68.266667-153.6 192-164.266666V123.733333h66.133334v70.4c98.133333 12.8 155.733333 72.533333 174.933333 174.933334h-102.4c-14.933333-53.333333-40.533333-85.333333-74.666667-96V469.333333c128 32 192 89.6 192 172.8 2.133333 108.8-61.866667 170.666667-192 181.333334V896h-64z m0-443.733333v-183.466667c-53.333333 10.666667-78.933333 42.666667-78.933333 93.866667 0 44.8 25.6 74.666667 78.933333 89.6z m64 106.666666v189.866667c53.333333-8.533333 78.933333-42.666667 78.933334-102.4 2.133333-40.533333-25.6-70.4-78.933334-87.466667zM738.133333 891.733333v-42.666666c-49.066667-4.266667-87.466667-25.6-117.333333-59.733334v-53.333333c32 44.8 70.4 68.266667 117.333333 72.533333V682.666667c-78.933333-14.933333-117.333333-53.333333-113.066666-110.933334 2.133333-57.6 40.533333-89.6 113.066666-98.133333v-40.533333h38.4v42.666666c57.6 8.533333 91.733333 42.666667 104.533334 104.533334h-59.733334c-8.533333-32-23.466667-51.2-42.666666-57.6v115.2c76.8 19.2 113.066667 53.333333 113.066666 102.4 2.133333 64-36.266667 100.266667-113.066666 106.666666v42.666667h-40.533334z m0-262.4v-108.8c-32 6.4-46.933333 25.6-46.933333 55.466667 0 25.6 14.933333 42.666667 46.933333 53.333333z m38.4 61.866667v113.066667c32-6.4 46.933333-25.6 46.933334-59.733334 0-25.6-14.933333-42.666667-46.933334-53.333333z" p-id="2410"></path></svg>