<?xml version="1.0" standalone="no"?><!DOCTYPE svg PUBLIC "-//W3C//DTD SVG 1.1//EN" "http://www.w3.org/Graphics/SVG/1.1/DTD/svg11.dtd"><svg t="1601003002673" class="icon" viewBox="0 0 1024 1024" version="1.1" xmlns="http://www.w3.org/2000/svg" p-id="6004" xmlns:xlink="http://www.w3.org/1999/xlink" width="128" height="128"><defs><style type="text/css"></style></defs><path d="M738.286 820.571c-6.857 0-13.715 0-20.572-6.857L608 731.43l-89.143 75.428c-13.714 13.714-34.286 13.714-48-6.857-13.714-13.714-13.714-34.286 6.857-48l109.715-96c13.714-6.857 27.428-6.857 41.142 6.857l109.715 82.286L896 580.57c13.714-13.714 34.286-13.714 48 0 13.714 13.715 13.714 34.286 0 48L765.714 813.714c-6.857 6.857-13.714 6.857-27.428 6.857z" p-id="6005" ></path><path d="M992 765.714L772.571 546.286H992zM512 992H100.571C80 992 66.286 978.286 66.286 957.714c0-171.428 109.714-356.571 294.857-418.285-75.429-54.858-130.286-137.143-130.286-233.143 0-144 116.572-267.429 260.572-267.429S745.143 155.43 745.143 299.43c0 54.857-20.572 109.714-48 144-13.714 13.714-34.286 20.571-48 6.857-13.714-13.715-13.714-34.286 0-48 20.571-20.572 34.286-61.715 34.286-102.857 0-109.715-82.286-192-185.143-192-109.715 0-198.857 89.142-198.857 198.857C299.429 416 388.57 512 491.429 512c20.571 0 34.285 13.714 34.285 34.286s-6.857 34.285-27.428 34.285C292.57 580.571 155.429 752 134.857 923.43H512c20.571 0 34.286 13.714 34.286 34.285S532.57 992 512 992z" p-id="6006"></path></svg>