<?xml version="1.0" standalone="no"?><!DOCTYPE svg PUBLIC "-//W3C//DTD SVG 1.1//EN" "http://www.w3.org/Graphics/SVG/1.1/DTD/svg11.dtd"><svg t="1562814116279" class="icon" viewBox="0 0 1024 1024" version="1.1" xmlns="http://www.w3.org/2000/svg" p-id="15937" xmlns:xlink="http://www.w3.org/1999/xlink" width="300" height="300"><defs><style type="text/css"></style></defs><path d="M852.48 154.112c-11.264 0-20.48 9.216-20.48 20.48V931.84h-640V92.16H762.88c11.264 0 20.48-9.216 20.48-20.48s-9.216-20.48-20.48-20.48H192c-22.528 0-40.96 18.432-40.96 40.96v839.68c0 22.528 18.432 40.96 40.96 40.96h640c22.528 0 40.96-18.432 40.96-40.96V174.592c0-11.264-9.216-20.48-20.48-20.48z" p-id="15938"></path><path d="M849.92 72.192m-20.48 0a20.48 20.48 0 1 0 40.96 0 20.48 20.48 0 1 0-40.96 0Z" p-id="15939"></path><path d="M251.904 314.368c-11.264 0-20.48 9.216-20.48 20.48s9.216 20.48 20.48 20.48h64.512V414.72c0 11.264 9.216 20.48 20.48 20.48s20.48-9.216 20.48-20.48V355.328h64.512c11.264 0 20.48-9.216 20.48-20.48s-9.216-20.48-20.48-20.48H357.888v-16.896h64.512c11.264 0 20.48-9.216 20.48-20.48s-9.216-20.48-20.48-20.48H373.76l51.712-98.816c5.12-10.24 1.536-22.528-8.704-27.648s-22.528-1.536-27.648 8.704L336.896 238.592 282.112 138.752c-5.632-9.728-17.92-13.312-27.648-8.192-10.24 5.632-13.824 17.92-8.704 28.16l54.272 98.304h-48.128c-11.264 0-20.48 9.216-20.48 20.48s9.216 20.48 20.48 20.48h64.512v16.896H251.904zM526.336 481.28c0 11.264 9.216 20.48 20.48 20.48h240.64c11.264 0 20.48-9.216 20.48-20.48s-9.216-20.48-20.48-20.48h-240.64c-11.776 0-20.48 9.216-20.48 20.48zM787.456 829.44h-460.8c-11.264 0-20.48 9.216-20.48 20.48s9.216 20.48 20.48 20.48h460.8c11.264 0 20.48-9.216 20.48-20.48s-9.216-20.48-20.48-20.48zM787.456 624.64h-460.8c-11.264 0-20.48 9.216-20.48 20.48s9.216 20.48 20.48 20.48h460.8c11.264 0 20.48-9.216 20.48-20.48s-9.216-20.48-20.48-20.48zM490.496 281.6c0 11.264 9.216 20.48 20.48 20.48h105.472l-19.456 19.456c-8.192 8.192-8.192 20.992 0 29.184 4.096 4.096 9.216 6.144 14.336 6.144s10.24-2.048 14.336-6.144l52.736-52.736c4.096-4.096 6.144-8.704 6.144-13.824v-2.048c0-1.536 0-3.072-0.512-4.096-1.024-4.608-3.072-8.704-6.656-12.288l-52.224-52.224c-8.192-8.192-20.992-8.192-29.184 0-8.192 8.192-8.192 20.992 0 29.184l19.456 19.456H510.976c-11.776-1.024-20.48 8.192-20.48 19.456z" p-id="15940"></path></svg>